<mxfile host="app.diagrams.net" modified="2023-08-26T18:02:27.638Z" agent="Mozilla/5.0 (Windows NT 10.0; Win64; x64) AppleWebKit/537.36 (KHTML, like Gecko) Chrome/116.0.0.0 Safari/537.36" version="21.6.6" etag="oMAl4Sy1FRmL92mQ4kR0" type="github">
  <diagram name="Page-1" id="TV5dI1GZcJ32xobNpD3Q">
    <mxGraphModel>
      <root>
        <mxCell id="0" />
        <mxCell id="1" parent="0" />
      </root>
    </mxGraphModel>
  </diagram>
</mxfile>
